<svg id="visual" viewBox="0 0 900 600" width="900" height="600" xmlns="http://www.w3.org/2000/svg" xmlns:xlink="http://www.w3.org/1999/xlink" version="1.1"><g transform="translate(461.18857778069366 331.6591154762183)"><path d="M70.2 -109.1C92.5 -80.3 113.3 -61.9 136.1 -34.2C158.8 -6.5 183.6 30.6 174.7 56.5C165.9 82.3 123.5 97 88.8 108C54.1 119.1 27 126.5 2.5 123.1C-22 119.7 -44.1 105.3 -79.8 94.6C-115.4 83.9 -164.7 76.7 -185.9 51.1C-207 25.4 -200 -18.6 -182.5 -55.2C-165 -91.7 -136.8 -120.7 -104.7 -146.2C-72.5 -171.8 -36.2 -193.9 -6.2 -185.4C23.9 -176.9 47.8 -137.8 70.2 -109.1" fill="#fe4870"></path></g></svg>